HIERARCHY
ROOT Bip001_Pelvis
{
  OFFSET 0.641812 93.1052 -5.31185
  CHANNELS 6 Xposition Yposition Zposition Zrotation Xrotation Yrotation
  JOINT Bip001_Spine
  {
    OFFSET 1.44608e-005 10.4157 -0.0118244
    CHANNELS 3 Zrotation Xrotation Yrotation
    JOINT Bip001_L_Thigh
    {
      OFFSET 11.2582 -10.4157 0.0118432
      CHANNELS 3 Zrotation Xrotation Yrotation
      JOINT Bip001_L_Calf
      {
        OFFSET -0.720717 -44.8687 0.366937
        CHANNELS 3 Zrotation Xrotation Yrotation
        JOINT Bip001_L_Foot
        {
          OFFSET -0.664439 -41.3745 -3.62995
          CHANNELS 3 Zrotation Xrotation Yrotation
          JOINT Bip001_L_Toe0
          {
            OFFSET 0.0541047 -10.4146 13.4033
            CHANNELS 3 Zrotation Xrotation Yrotation
            End Site
            {
              OFFSET -1.04503e-005 0 7.70137
            }
          }
        }
      }
    }
    JOINT Bip001_R_Thigh
    {
      OFFSET -11.2582 -10.4156 0.0118122
      CHANNELS 3 Zrotation Xrotation Yrotation
      JOINT Bip001_R_Calf
      {
        OFFSET 0.72059 -44.8687 0.36676
        CHANNELS 3 Zrotation Xrotation Yrotation
        JOINT Bip001_R_Foot
        {
          OFFSET 0.664321 -41.3745 -3.62979
          CHANNELS 3 Zrotation Xrotation Yrotation
          JOINT Bip001_R_Toe0
          {
            OFFSET -0.05417 -10.4146 13.4033
            CHANNELS 3 Zrotation Xrotation Yrotation
            End Site
            {
              OFFSET -1.04873e-005 0 7.70137
            }
          }
        }
      }
    }
    JOINT Bip001_Spine1
    {
      OFFSET 1.90638e-005 14.8539 1.10727
      CHANNELS 3 Zrotation Xrotation Yrotation
      JOINT Bip001_Spine2
      {
        OFFSET 2.28934e-005 14.7848 -1.7233
        CHANNELS 3 Zrotation Xrotation Yrotation
        JOINT Bip001_Neck
        {
          OFFSET 2.24514e-005 15.6905 -0.498826
          CHANNELS 3 Zrotation Xrotation Yrotation
          JOINT Bip001_L_Clavicle
          {
            OFFSET 6.17691 -0.000591152 0.00852867
            CHANNELS 3 Zrotation Xrotation Yrotation
            JOINT Bip001_L_UpperArm
            {
              OFFSET 11.773 -0.0611878 0.00197697
              CHANNELS 3 Zrotation Xrotation Yrotation
              JOINT Bip001_L_Forearm
              {
                OFFSET 26.4515 0.0817567 -2.1958
                CHANNELS 3 Zrotation Xrotation Yrotation
                JOINT Bip001_L_Hand
                {
                  OFFSET 32.8679 0.156744 1.67111
                  CHANNELS 3 Zrotation Xrotation Yrotation
                  JOINT Bip001_L_Finger0
                  {
                    OFFSET 6.1627 -2.25226 6.01671
                    CHANNELS 3 Zrotation Xrotation Yrotation
                    End Site
                    {
                      OFFSET 4.305 -1.46663 0.618145
                    }
                  }
                  JOINT Bip001_L_Finger1
                  {
                    OFFSET 11.2958 -0.718374 -0.201962
                    CHANNELS 3 Zrotation Xrotation Yrotation
                    End Site
                    {
                      OFFSET 6.31955 -0.405163 -0.0802299
                    }
                  }
                }
              }
            }
          }
          JOINT Bip001_R_Clavicle
          {
            OFFSET -6.17691 -0.000574027 0.00851165
            CHANNELS 3 Zrotation Xrotation Yrotation
            JOINT Bip001_R_UpperArm
            {
              OFFSET -11.773 -0.0611516 0.00194365
              CHANNELS 3 Zrotation Xrotation Yrotation
              JOINT Bip001_R_Forearm
              {
                OFFSET -26.4514 0.0822335 -2.19736
                CHANNELS 3 Zrotation Xrotation Yrotation
                JOINT Bip001_R_Hand
                {
                  OFFSET -32.8679 0.156816 1.67144
                  CHANNELS 3 Zrotation Xrotation Yrotation
                  JOINT Bip001_R_Finger0
                  {
                    OFFSET -6.16272 -2.25224 6.01669
                    CHANNELS 3 Zrotation Xrotation Yrotation
                    End Site
                    {
                      OFFSET -4.30501 -1.46661 0.618133
                    }
                  }
                  JOINT Bip001_R_Finger1
                  {
                    OFFSET -11.2958 -0.718344 -0.201994
                    CHANNELS 3 Zrotation Xrotation Yrotation
                    End Site
                    {
                      OFFSET -6.31955 -0.405146 -0.0802474
                    }
                  }
                }
              }
            }
          }
          JOINT Bip001_Head
          {
            OFFSET 1.11782e-005 11.4912 2.09908
            CHANNELS 3 Zrotation Xrotation Yrotation
            End Site
            {
              OFFSET 2.95144e-005 21.2823 -2.83069e-005
            }
          }
        }
      }
    }
  }
}
MOTION
Frames:	16
Frame Time:	0.0333333
0.785686 92.3913 0.329123 -5.07936 1.66623 -66.7639 -1.48166 2.2017 -1.52024 4.30152 -7.066 6.38006 -0.184403 49.539 1.43429 -8.46171 -2.99722 27.2817 -1.05719e-008 -2.13557e-007 -6.375e-010 8.44892 -10.829 10.4492 -0.508208 26.4419 2.51978 -1.62615 -8.3197 -3.91256 -1.06655e-007 -7.2279e-010 -3.54643e-009 0.155982 4.52573 -3.09474 0.162188 4.52032 -3.10221 14.004 8.98452 -30.8655 -23.3455 -19.3287 15.9699 -48.4514 3.70427 -18.6766 -5.59325 5.60851 -86.7215 -16.9371 12.7122 2.72736 0 6.36111e-015 -0 3.18055e-015 0 -0 8.6819 -4.81123 29.5931 52.1168 15.983 22.5981 5.46967 4.57475 76.4998 0.0762136 14.8304 8.4368 3.18055e-015 -1.59028e-015 6.36111e-015 -3.18055e-015 0 3.18055e-015 2.12473 -23.4678 -1.37126 
1.08582 91.6513 0.696544 -5.23907 4.00328 -72.4163 -1.37151 2.24387 -1.48916 8.81766 -11.9173 7.58454 -0.150228 59.964 0.653532 -9.10058 -7.54751 20.4402 -1.05719e-008 -2.13557e-007 -6.37506e-010 12.1874 -12.5096 17.8975 -0.549972 28.7733 2.65859 1.03627 -9.05548 -1.639 -1.06655e-007 -7.22791e-010 -3.54642e-009 0.836741 4.61558 -3.15356 0.844079 4.60878 -3.16204 14.4917 7.69799 -30.0755 -24.8806 -18.3394 15.6301 -48.7494 4.38455 -17.8403 -5.58924 5.49708 -85.6183 -15.2563 14.3536 2.98849 3.18055e-015 3.18055e-015 1.59028e-015 0 9.54167e-015 -0 8.48083 -3.43621 28.8946 51.3323 15.327 25.0762 5.43057 4.40156 74.7381 -0.12614 15.033 8.32515 -1.76556e-031 -6.36111e-015 -1.59028e-015 -3.18055e-015 -6.36111e-015 -3.18055e-015 1.62708 -22.0519 -0.837004 
1.46875 91.421 2.18771 -6.67094 4.04247 -77.4767 -0.81006 2.80059 -1.62617 11.0258 -12.8189 9.22562 -0.0907743 63.1267 0.344585 -8.06041 -7.08363 16.3727 -1.05719e-008 -2.13557e-007 -6.37503e-010 10.3967 -11.5455 17.796 -0.572854 28.3317 2.97178 1.59665 -8.0747 1.76853 -1.06655e-007 -7.22791e-010 -3.54643e-009 1.0364 5.68137 -3.18893 1.04278 5.6755 -3.1975 14.2592 6.99067 -29.3385 -26.4557 -17.7474 14.7737 -48.096 4.91514 -17.7166 -5.5817 5.36537 -84.2885 -14.2319 16.359 2.58582 3.18055e-015 3.18055e-015 -0 0 0 -1.59028e-015 7.96098 -3.03326 27.9992 51.5383 15.9457 26.3459 5.39588 4.26515 73.342 -2.694 16.9749 8.84744 -3.18055e-015 0 -0 -0 0 1.59028e-015 1.56718 -21.7843 -0.530156 
1.63359 91.4447 3.69625 -7.42819 3.28473 -81.0943 -0.742551 3.18854 -1.89465 11.1534 -13.363 7.70736 -0.138925 61.4591 0.0479712 -6.79498 -9.90997 13.882 -1.05719e-008 -2.13557e-007 -6.37506e-010 7.58224 -11.1183 15.5728 -0.570184 27.962 3.26423 1.48448 -6.85794 5.2961 -1.06655e-007 -7.22791e-010 -3.54643e-009 0.995565 6.4333 -3.63063 1.00226 6.42667 -3.64104 13.4339 6.27762 -29.2639 -26.6913 -17.0191 14.8715 -48.047 4.55199 -17.7225 -5.57484 5.27605 -83.3698 -15.4254 17.7411 2.87955 -9.54166e-015 0 -3.18055e-015 -6.36111e-015 3.18056e-015 -0 8.27172 -2.1207 27.6294 51.9205 15.6089 26.3752 5.37639 4.19366 72.6026 -5.54115 20.2754 10.0741 1.76556e-031 3.18055e-015 -3.18055e-015 -3.18055e-015 6.36111e-015 -3.18055e-015 1.13722 -21.2149 -0.490298 
1.97247 91.5088 4.8343 -6.7473 3.75193 -84.1532 -0.422923 3.24511 -2.43088 10.7146 -14.3627 2.43094 -0.188551 54.7997 0.10844 -5.63189 -8.39781 15.2629 -1.05719e-008 -2.13557e-007 -6.37506e-010 5.78864 -11.936 12.5236 -0.566064 27.2952 3.45033 1.186 -6.84371 9.91496 -1.06655e-007 -7.2279e-010 -3.54642e-009 1.22683 6.50084 -4.47518 1.23305 6.49315 -4.4853 13.4674 5.32541 -28.9197 -27.4039 -16.2108 14.8864 -47.6931 6.10281 -16.6744 -5.57552 5.28691 -83.4876 -12.3748 19.0979 2.53587 -6.36111e-015 0 -6.36111e-015 -6.36111e-015 3.18056e-015 -9.54166e-015 8.07382 -1.19231 27.1578 51.6883 15.3574 25.9711 5.37498 4.18756 72.5067 -8.89028 21.8094 11.472 3.18055e-015 9.54166e-015 -1.59028e-015 3.18055e-015 9.54167e-015 -3.97569e-015 1.09259 -20.7224 -0.592667 
2.02302 91.6068 6.08264 -5.90636 4.21734 -88.768 -0.201504 3.19793 -2.69975 10.7287 -12.736 -0.591136 -0.1975 43.4221 0.668441 -5.68501 -1.16645 7.83073 -1.05719e-008 -2.13557e-007 -6.37504e-010 3.87691 -12.5931 9.23797 -0.538666 26.0044 3.67573 0.356115 -5.60692 14.0494 -1.06655e-007 -7.2279e-010 -3.54643e-009 1.39337 6.37843 -4.81123 1.39849 6.37095 -4.81966 13.3758 5.34284 -28.2622 -27.9354 -16.0165 14.1634 -46.9785 9.4437 -14.9118 -5.57686 5.30403 -83.6758 -4.98182 21.4855 0.0977706 -3.18055e-015 3.18055e-015 -3.18055e-015 -6.36111e-015 3.18056e-015 -3.18055e-015 8.65661 -0.970964 26.5123 50.9845 16.5059 25.3501 5.3836 4.21623 72.8574 -13.605 22.1719 13.7024 -1.59028e-015 -3.18055e-015 -0 -7.95139e-016 -6.36111e-015 -3.97569e-016 0.688625 -19.8067 -0.814671 
1.85673 91.4368 7.87887 -5.77706 3.59755 -95.8635 -0.354729 3.23771 -2.45076 8.65483 -10.6613 -3.60297 -0.214677 38.1925 0.999686 -4.87865 -0.958848 6.66282 -1.05719e-008 -2.13557e-007 -6.37503e-010 1.69383 -14.6289 8.63466 -0.547426 27.8519 4.01098 0.101978 -5.59419 17.2075 -1.06655e-007 -7.2279e-010 -3.54643e-009 1.17894 6.46214 -4.25962 1.1835 6.45516 -4.26921 12.3707 4.76703 -27.2627 -28.1439 -14.9191 13.5582 -46.8569 12.0309 -12.8778 -5.57595 5.29047 -83.5538 4.01985 24.5482 -3.6073 -0 0 3.18055e-015 -0 0 6.36111e-015 9.34904 -0.130269 25.3726 50.8749 17.5028 24.3911 5.37558 4.23142 72.9988 -19.517 25.3418 16.2421 -7.95139e-016 3.18055e-015 -3.97569e-016 3.97569e-016 3.18056e-015 -0 0.286795 -18.3269 -0.856245 
1.62316 91.1949 9.36073 -5.90094 2.88442 -103.651 -1.04596 3.2774 -1.95743 5.39478 -9.29919 -11.4874 -0.310867 41.3926 0.186483 -4.30913 -15.4762 23.0257 -1.05719e-008 -2.13557e-007 -6.37502e-010 0.737662 -17.5639 10.0967 -0.589885 30.9878 4.31545 0.145343 -6.05208 17.4588 -1.06655e-007 -7.2279e-010 -3.54643e-009 0.950963 6.58526 -3.5267 0.95688 6.57662 -3.54508 11.751 4.99626 -25.6544 -28.2846 -14.2585 12.1285 -47.2163 11.2249 -10.6034 -5.57377 5.26304 -83.2953 9.42004 25.2713 -6.90692 -3.18055e-015 -9.54166e-015 -3.18055e-015 -3.18055e-015 -6.36111e-015 -0 10.2132 -0.164 23.9942 51.1462 15.4818 23.3226 5.38512 4.21976 72.8789 -22.8567 24.8814 17.7081 3.18055e-015 3.18055e-015 1.59028e-015 1.59028e-015 0 3.18055e-015 0.765224 -17.1426 -0.98492 
1.68416 91.1325 11.0916 -5.29002 3.12839 -111.25 -0.997108 3.35507 -1.63306 2.64374 -7.91861 -15.0647 -0.331391 41.0295 0.502516 -5.28982 -20.5504 16.1635 -1.05719e-008 -2.13557e-007 -6.375e-010 0.724616 -19.8193 13.1262 -0.587768 31.0017 4.44926 0.695752 -5.417 14.594 -1.06655e-007 -7.22789e-010 -3.54642e-009 1.05694 6.75189 -2.75665 1.06163 6.7457 -2.77445 11.1108 4.7862 -23.6889 -28.8044 -13.1271 10.5685 -46.5888 7.76109 -8.85322 -5.56813 5.20151 -82.6865 13.5568 26.544 -10.9379 -3.18055e-015 9.54166e-015 -3.18055e-015 -3.18055e-015 9.54167e-015 -0 10.7723 0.091702 22.4302 51.7138 12.6668 22.8513 5.36189 4.13758 72.0333 -28.0052 23.4992 19.6385 -3.18055e-015 0 -0 1.76556e-031 -3.18056e-015 3.18055e-015 0.974081 -15.525 -1.18723 
1.47747 91.2443 12.7802 -5.0555 3.19531 -118.916 -1.12899 3.56501 -1.12024 1.41064 -3.97625 -15.3909 -0.211966 33.7086 1.36313 -4.61534 -13.1942 11.7761 -1.05719e-008 -2.13557e-007 -6.37493e-010 0.0487907 -21.6123 14.0145 -0.577359 30.5777 4.56218 0.917269 -5.2181 11.9514 -1.06655e-007 -7.22792e-010 -3.54643e-009 1.0306 7.19282 -1.65473 1.03359 7.18978 -1.67484 9.99604 4.14974 -21.7066 -29.3629 -11.5401 9.11823 -45.0844 5.33818 -8.26695 -5.55519 5.08161 -81.4771 20.6924 28.4365 -15.0974 3.18055e-015 3.18055e-015 6.36111e-015 6.36111e-015 3.18056e-015 6.36111e-015 11.3344 0.655584 20.486 52.3677 11.5081 22.1353 5.31821 3.99401 70.5453 -34.2581 19.7732 21.2138 0 0 -0 3.18055e-015 6.36111e-015 -0 1.03823 -13.632 -1.36755 
1.05102 91.0552 14.1484 -5.20916 3.48603 -126.487 -1.43721 3.82975 -0.484106 0.890699 -1.00801 -13.238 -0.278006 30.108 1.69144 -3.3383 -16.0521 9.46964 -1.05719e-008 -2.13557e-007 -6.37509e-010 -0.522731 -23.4422 13.219 -0.591092 31.3994 4.76828 0.325106 -4.9045 8.27152 -1.06655e-007 -7.22791e-010 -3.54642e-009 0.925738 7.76506 -0.439259 0.926336 7.76628 -0.464572 9.23066 3.61536 -19.8815 -29.7901 -10.0874 7.6501 -44.0682 4.14243 -7.80706 -5.54221 4.97989 -80.4599 27.4081 30.1864 -19.5296 -0 -9.54166e-015 -0 6.36111e-015 -6.36111e-015 3.18055e-015 11.7591 1.00535 18.6032 52.8765 11.0915 21.2274 5.26445 3.83346 68.8673 -39.2629 17.9336 23.056 6.36111e-015 -1.59028e-015 3.18055e-015 6.36111e-015 -1.59028e-015 -0 0.598229 -12.0879 -1.42928 
0.581406 90.5321 15.4749 -4.63029 3.9146 -133.096 -1.38555 3.93553 -0.101662 0.243807 0.652492 -11.1642 -0.290925 28.126 2.01539 -2.08997 -17.4214 6.88985 -1.05719e-008 -2.13557e-007 -6.375e-010 -0.513743 -25.7367 11.9091 -0.629206 33.445 5.00354 0.0747117 -4.77264 5.47407 -1.06655e-007 -7.2279e-010 -3.54643e-009 0.944665 7.99452 0.44159 0.942674 7.99912 0.416648 8.70835 3.83835 -18.0375 -29.9874 -9.27534 5.86918 -43.4355 2.65994 -6.73344 -5.5297 4.89312 -79.5904 33.4586 29.71 -22.768 -3.18055e-015 3.18055e-015 3.18055e-015 -3.53113e-031 6.36111e-015 3.18055e-015 12.4021 0.625987 16.9093 53.1576 10.166 19.9285 5.2246 3.72298 67.7036 -44.1611 17.1388 26.1515 -3.18055e-015 3.18055e-015 -6.36111e-015 -3.18055e-015 3.18056e-015 -3.18055e-015 0.318539 -11.8486 -1.40186 
0.258232 89.8832 16.5762 -3.84077 3.80011 -139.2 -1.36251 3.89842 0.108159 -0.0928731 0.77325 -6.88668 -0.320053 28.0166 2.29897 -1.53808 -20.1675 2.13305 -1.05719e-008 -2.13557e-007 -6.375e-010 -0.493386 -28.267 9.34634 -0.678947 36.1483 5.31587 -0.00916922 -3.35242 6.72217 -1.06655e-007 -7.22787e-010 -3.54642e-009 0.921349 7.9393 1.0575 0.917265 7.94586 1.03387 7.88811 4.24524 -16.066 -29.9615 -8.53827 4.05247 -42.8262 0.845822 -4.8427 -5.52375 4.85477 -79.1984 38.4923 29.7908 -25.8163 -3.18055e-015 3.18055e-015 3.18055e-015 -0 0 3.18055e-015 13.237 0.119268 15.3905 52.9714 8.33701 18.342 5.20456 3.6691 67.134 -42.9966 15.6735 25.4248 -3.18055e-015 -7.95139e-016 -3.18055e-015 -1.59028e-015 -3.97569e-015 -3.18055e-015 0.37461 -11.6944 -1.26625 
-0.164358 89.4373 17.8345 -3.35348 3.46692 -144.34 -1.1904 3.89413 0.195295 -1.14003 0.124611 -3.49358 -0.348762 28.8091 2.50167 -0.801783 -22.3149 0.424481 -1.05719e-008 -2.13557e-007 -6.37509e-010 -0.941452 -29.2373 7.36023 -0.700558 36.994 5.43265 0.17476 -2.41627 8.60357 -1.06655e-007 -7.22793e-010 -3.54641e-009 0.680042 7.91935 1.37279 0.676064 7.92517 1.3534 7.52086 4.20218 -14.2328 -30.2392 -7.57077 2.54252 -42.0995 -1.45571 -2.7934 -5.52335 4.85259 -79.1962 43.6697 31.2742 -30.7598 3.18055e-015 -1.59028e-015 -6.36111e-015 3.18055e-015 0 -6.36111e-015 13.7953 -0.0684984 13.7276 52.3724 6.28752 16.8608 5.19083 3.63247 66.7469 -41.3207 13.0933 23.7225 -3.18055e-015 -4.37326e-015 -0 -3.18055e-015 -2.78299e-015 -0 0.362213 -11.5527 -1.22771 
-0.336791 89.5918 18.8847 -2.41145 3.31562 -148.291 -0.909688 3.90189 0.230713 -2.72027 -0.946116 -5.07412 -0.365039 29.4601 2.41225 0.392253 -23.1637 4.82548 -1.05719e-008 -2.13557e-007 -6.37503e-010 -1.06035 -29.0635 6.32254 -0.654358 34.7337 5.43008 0.293594 -0.49387 8.78357 -1.06655e-007 -7.22788e-010 -3.54644e-009 0.658667 7.88663 1.42384 0.656022 7.89063 1.40995 7.55823 3.76761 -12.6978 -30.6155 -6.44584 1.4095 -41.3213 -4.13253 -1.34862 -5.51817 4.82046 -78.8708 47.1615 31.5062 -34.5364 -7.06225e-031 -6.36111e-015 -6.36111e-015 3.18055e-015 -4.77083e-015 -3.18055e-015 14.2288 0.0896194 12.0478 51.6455 6.26648 15.7862 5.16387 3.56399 66.0179 -43.9284 11.5009 24.2878 -1.59028e-015 -9.34288e-015 -0 -2.38542e-015 -4.96962e-015 -0 0.358966 -11.5887 -1.32477 
-0.206185 89.7097 19.6232 -1.8893 3.51917 -151.543 -1.08851 4.04852 0.189916 -4.31297 -1.78777 -8.79453 -0.363603 29.8744 2.27936 1.25425 -21.774 9.08857 -1.05719e-008 -2.13557e-007 -6.37512e-010 -0.79522 -29.8536 4.87018 -0.620798 33.3758 5.5097 -0.182447 1.6737 9.87711 -1.06655e-007 -7.22791e-010 -3.54643e-009 0.838363 8.20095 1.27661 0.836154 8.20454 1.26065 7.13952 2.94562 -11.116 -30.9013 -4.90366 0.459534 -40.3871 -7.413 -0.90316 -5.5034 4.73513 -78.0002 48.9127 31.2787 -35.9232 -3.18055e-015 1.59028e-015 -0 8.82782e-032 -1.59028e-015 3.18055e-015 14.7799 0.649621 10.3706 51.2534 5.66531 15.4411 5.12474 3.46942 65.0045 -47.3035 12.3228 27.1476 -2.78298e-015 -1.17283e-014 -1.59028e-015 -3.18055e-015 -1.06847e-014 -1.59028e-015 0.358966 -11.5887 -1.32477 
